<svg xmlns="http://www.w3.org/2000/svg" viewBox="0 0 512 512">
  <path d="M.1 249c-.1 2.3-.1 4.7-.1 7s0 4.5.1 6.8h13.8c-.1-2.2-.1-4.5-.1-6.8s0-4.6.1-7H.1zm511.8 13.8c.1-2.3.1-4.5.1-6.8s0-4.7-.1-7h-13.8c.1 2.3.1 4.6.1 7 0 2.3 0 4.5-.1 6.8h13.8zM256 13.8c121.7 0 223.6 89.3 240 209h13.9C493.4 95.1 385.9 0 256 0S18.6 95.1 2.2 222.8H16c16.4-119.7 118.2-209 240-209zM139.1 409.6l9.7 9.7 101-101c1.7-1.7 3.9-2.6 6.2-2.6 2.2 0 4.5.9 6.2 2.6l101 101 9.7-9.7L256 292.7 139.1 409.6z"/>
  <path d="M496 289c-8 58.3-36.9 111.5-81.9 150.3-3.5 3-8.6 2.8-11.8-.4l-10.7-10.7-9.7 9.7 7.6 7.6c1.9 1.9 2.8 4.4 2.5 7.1-.3 2.6-1.7 5-3.9 6.4-39.4 25.7-85 39.3-132 39.3s-92.6-13.6-132-39.3c-2.2-1.4-3.6-3.8-3.9-6.4-.3-2.6.6-5.2 2.5-7.1l7.6-7.6-9.7-9.7-10.7 10.7c-3.2 3.2-8.4 3.4-11.8.4C52.9 400.5 24 347.4 16 289H2.2c7.9 61.7 37.9 118 85 159.4 1.8 1.6 2.9 3.9 3 6.3.1 2.4-.8 4.7-2.5 6.4l-5.5 5.5 9.7 9.7 8.2-8.2c1.7-1.7 3.9-2.6 6.2-2.6 1.7 0 3.4.5 4.9 1.5 42.7 29.5 92.8 45 144.8 45 52 0 102.1-15.5 144.8-44.9 3.5-2.4 8.1-1.9 11.1 1l8.2 8.2 9.7-9.7-5.5-5.5c-1.7-1.7-2.6-4-2.5-6.4.1-2.4 1.1-4.7 3-6.3 47.1-41.4 77.1-97.7 85-159.4H496zm-246.9-26.2h13.8v-201c-4.8-.2-9-.2-13.8 0v201zm40-198.2v198.2h161.1c.1-2.3.1-4.5.1-6.8 0-94.9-68.6-175.6-161.2-191.4zM422.8 187c7 16.9 11.4 34.5 13 52.6.2 2.4-.6 4.9-2.2 6.7-1.7 1.8-4 2.8-6.4 2.8H311.4c-4.8 0-8.7-3.9-8.7-8.7v-50c0-4.8 3.9-8.7 8.7-8.7h103.3c3.6-.1 6.7 2 8.1 5.3zm-17.2-23.8c-1.5 2.9-4.5 4.6-7.7 4.6h-86.4c-4.8 0-8.7-3.9-8.7-8.7V93.3c0-2.8 1.4-5.4 3.6-7.1 2.3-1.6 5.2-2.1 7.9-1.2 36.6 12.5 68.8 37 90.8 69.1 1.8 2.8 2 6.2.5 9.1zM61.8 262.8h161V64.6C130.3 80.4 61.7 161.1 61.7 256c0 2.3 0 4.5.1 6.8zm93.9-152.1c0-3 1.5-5.8 4.1-7.4 11.9-7.5 24.7-13.6 37.9-18.2 2.7-.9 5.6-.5 7.9 1.2 2.3 1.6 3.6 4.3 3.6 7.1v146.9c0 4.8-3.9 8.7-8.7 8.7h-36.1c-4.8 0-8.7-3.9-8.7-8.7V110.7zM127 129.9c2.5-2.5 6.2-3.3 9.5-2 3.3 1.3 5.4 4.5 5.4 8.1v104.4c0 4.8-3.9 8.7-8.7 8.7H84.9c-2.4 0-4.8-1-6.4-2.8-1.7-1.8-2.5-4.2-2.2-6.7 3.6-41.1 21.7-80.1 50.7-109.7z"/>
</svg>