<?xml version="1.0" encoding="utf-8"?>
<!-- Generator: Adobe Illustrator 23.0.3, SVG Export Plug-In . SVG Version: 6.00 Build 0)  -->
<svg version="1.1" id="圖層_1" xmlns="http://www.w3.org/2000/svg" xmlns:xlink="http://www.w3.org/1999/xlink" x="0px" y="0px"
	 viewBox="0 0 512 376" style="enable-background:new 0 0 512 376;" xml:space="preserve">
<style type="text/css">
	.st0{fill:none;stroke:#000000;stroke-width:25;stroke-linecap:round;stroke-linejoin:round;stroke-miterlimit:10;}
	.st1{fill:none;stroke:#000000;stroke-width:25;stroke-linejoin:round;stroke-miterlimit:10;}
	.st2{fill:#2A2A2A;}
	.st3{opacity:0.2;}
	.st4{fill:url(#SVGID_2_);}
	.st5{clip-path:url(#SVGID_7_);fill:url(#SVGID_8_);}
	.st6{clip-path:url(#SVGID_7_);}
	.st7{opacity:0.6;}
</style>
<g>
	<path d="M434.5,46.6c13.3-18.3,32.7-33.8,58.1-46.6H336.6c-13.8,19.5-24.1,40.3-30.9,62.5c-11.4,37.1-17.1,88.3-17.1,153.6V376H512
		V152.4H403.9C404.9,108.4,415.1,73.1,434.5,46.6z"/>
	<path d="M145.9,46.6c13.3-18.3,32.7-33.8,58.1-46.6h-156c-13.7,19.6-24,40.5-30.8,62.9C5.7,100.3,0,151.3,0,216.1V376h223.4V152.4
		H115.3C116.3,108.4,126.5,73.1,145.9,46.6z"/>
</g>
</svg>
